<svg id="svg" fill="#000000" stroke="#000000" width="200px" height="200px" version="1.1" viewBox="144 144 512 512" xmlns="http://www.w3.org/2000/svg">
    <g id="IconSvg_bgCarrier" stroke-width="0"></g>
    <g id="IconSvg_tracerCarrier" stroke-linecap="round" stroke-linejoin="round" stroke="#CCCCCC"></g>
     <g id="IconSvg_iconCarrier">
      <g xmlns="http://www.w3.org/2000/svg" fill-rule="evenodd">
  <path d="m258.3 588.93h220.42c8.6914 0 15.742 7.0547 15.742 15.746s-7.0508 15.742-15.742 15.742h-236.16c-8.6992 0-15.746-7.043-15.746-15.742v-188.93c0-4.1719 1.6641-8.1797 4.6133-11.129l157.44-157.44c6.1484-6.1484 16.113-6.1484 22.262 0l157.44 157.44c2.9531 2.9492 4.6133 6.957 4.6133 11.129v188.93c0 8.6992-7.0469 15.742-15.746 15.742h-15.742c-8.6914 0-15.746-7.0508-15.746-15.742s7.0547-15.746 15.746-15.746v-166.66l-141.7-141.7-141.7 141.7z"></path>
  <path d="m462.98 478.72c0-8.6992-7.0547-15.742-15.746-15.742h-94.465c-8.6914 0-15.746 7.043-15.746 15.742v125.95c0 8.6992 7.0547 15.742 15.746 15.742h94.465c8.6914 0 15.746-7.043 15.746-15.742zm-94.465 15.742v94.465h62.973v-94.465z"></path>
  <path d="m242.56 533.82h110.21c8.6914 0 15.746-7.0547 15.746-15.746s-7.0547-15.742-15.746-15.742h-110.21c-8.6914 0-15.746 7.0508-15.746 15.742s7.0547 15.746 15.746 15.746z"></path>
  <path d="m447.23 533.82h110.21c8.6914 0 15.746-7.0547 15.746-15.746s-7.0547-15.742-15.746-15.742h-110.21c-8.6914 0-15.742 7.0508-15.742 15.742s7.0508 15.746 15.742 15.746z"></path>
  <path d="m242.57 447.23h314.88c8.6797 0 15.742-7.0547 15.742-15.742 0-8.6914-7.0625-15.746-15.742-15.746h-314.88c-8.6797 0-15.742 7.0547-15.742 15.746 0 8.6875 7.0625 15.742 15.742 15.742z"></path>
  <path d="m313.41 360.64h173.19c8.6836 0 15.746-7.0508 15.746-15.742 0-8.6914-7.0625-15.746-15.746-15.746h-173.19c-8.6836 0-15.746 7.0547-15.746 15.746 0 8.6914 7.0625 15.742 15.746 15.742z"></path>
  <path d="m400 280.67-153.23 153.23c-15.359 15.359-40.305 15.359-55.664 0-15.355-15.367-15.355-40.305 0-55.664l197.76-197.76c6.1484-6.1484 16.113-6.1484 22.262 0l197.76 197.76c15.359 15.359 15.359 40.297 0 55.664-15.359 15.359-40.305 15.359-55.664 0zm0-66.805-186.63 186.63c-3.0703 3.0703-3.0703 8.0586 0 11.129 3.0781 3.0781 8.0625 3.0781 11.141 0l164.36-164.36c6.1484-6.1484 16.113-6.1484 22.262 0l164.36 164.36c3.0781 3.0781 8.0625 3.0781 11.141 0 3.0703-3.0703 3.0703-8.0586 0-11.129z"></path>
 </g>

      </g>
      </svg>